<svg xmlns="http://www.w3.org/2000/svg" style="cursor: move;" width="1598" height="759"><g transform="translate(-23.369470487689227,-17.48815374828746) scale(1.038949117479482)"><path class="link" style="stroke-width: 0.5px; stroke-opacity: 1; stroke: rgb(80, 80, 80); fill: none;" marker-end="" d="M585.6666666666666,309.5C675.6666666666666,309.5 675.6666666666666,349.5 765.6666666666666,349.5"></path><path class="link" style="stroke-width: 0.5px; stroke-opacity: 1; stroke: rgb(80, 80, 80); fill: none;" marker-end="" d="M585.6666666666666,309.5C675.6666666666666,309.5 675.6666666666666,389.5 765.6666666666666,389.5"></path><path class="link" style="stroke-width: 0.5px; stroke-opacity: 1; stroke: rgb(80, 80, 80); fill: none;" marker-end="" d="M585.6666666666666,349.5C675.6666666666666,349.5 675.6666666666666,349.5 765.6666666666666,349.5"></path><path class="link" style="stroke-width: 0.5px; stroke-opacity: 1; stroke: rgb(80, 80, 80); fill: none;" marker-end="" d="M585.6666666666666,349.5C675.6666666666666,349.5 675.6666666666666,389.5 765.6666666666666,389.5"></path><path class="link" style="stroke-width: 0.5px; stroke-opacity: 1; stroke: rgb(80, 80, 80); fill: none;" marker-end="" d="M585.6666666666666,389.5C675.6666666666666,389.5 675.6666666666666,349.5 765.6666666666666,349.5"></path><path class="link" style="stroke-width: 0.5px; stroke-opacity: 1; stroke: rgb(80, 80, 80); fill: none;" marker-end="" d="M585.6666666666666,389.5C675.6666666666666,389.5 675.6666666666666,389.5 765.6666666666666,389.5"></path><path class="link" style="stroke-width: 0.5px; stroke-opacity: 1; stroke: rgb(80, 80, 80); fill: none;" marker-end="" d="M585.6666666666666,429.5C675.6666666666666,429.5 675.6666666666666,349.5 765.6666666666666,349.5"></path><path class="link" style="stroke-width: 0.5px; stroke-opacity: 1; stroke: rgb(80, 80, 80); fill: none;" marker-end="" d="M585.6666666666666,429.5C675.6666666666666,429.5 675.6666666666666,389.5 765.6666666666666,389.5"></path><path class="link" style="stroke-width: 0.5px; stroke-opacity: 1; stroke: rgb(80, 80, 80); fill: none;" marker-end="" d="M765.6666666666666,349.5C855.6666666666666,349.5 855.6666666666666,329.5 945.6666666666666,329.5"></path><path class="link" style="stroke-width: 0.5px; stroke-opacity: 1; stroke: rgb(80, 80, 80); fill: none;" marker-end="" d="M765.6666666666666,349.5C855.6666666666666,349.5 855.6666666666666,369.5 945.6666666666666,369.5"></path><path class="link" style="stroke-width: 0.5px; stroke-opacity: 1; stroke: rgb(80, 80, 80); fill: none;" marker-end="" d="M765.6666666666666,349.5C855.6666666666666,349.5 855.6666666666666,409.5 945.6666666666666,409.5"></path><path class="link" style="stroke-width: 0.5px; stroke-opacity: 1; stroke: rgb(80, 80, 80); fill: none;" marker-end="" d="M765.6666666666666,389.5C855.6666666666666,389.5 855.6666666666666,329.5 945.6666666666666,329.5"></path><path class="link" style="stroke-width: 0.5px; stroke-opacity: 1; stroke: rgb(80, 80, 80); fill: none;" marker-end="" d="M765.6666666666666,389.5C855.6666666666666,389.5 855.6666666666666,369.5 945.6666666666666,369.5"></path><path class="link" style="stroke-width: 0.5px; stroke-opacity: 1; stroke: rgb(80, 80, 80); fill: none;" marker-end="" d="M765.6666666666666,389.5C855.6666666666666,389.5 855.6666666666666,409.5 945.6666666666666,409.5"></path><path class="link" style="stroke-width: 0.5px; stroke-opacity: 1; stroke: rgb(80, 80, 80); fill: none;" marker-end="" d="M945.6666666666666,329.5C1035.6666666666667,329.5 1035.6666666666667,369.5 1125.6666666666667,369.5"></path><path class="link" style="stroke-width: 0.5px; stroke-opacity: 1; stroke: rgb(80, 80, 80); fill: none;" marker-end="" d="M945.6666666666666,369.5C1035.6666666666667,369.5 1035.6666666666667,369.5 1125.6666666666667,369.5"></path><path class="link" style="stroke-width: 0.5px; stroke-opacity: 1; stroke: rgb(80, 80, 80); fill: none;" marker-end="" d="M945.6666666666666,409.5C1035.6666666666667,409.5 1035.6666666666667,369.5 1125.6666666666667,369.5"></path><circle r="10" class="node" id="0_0" style="fill: rgb(255, 255, 255); stroke: rgb(51, 51, 51);" cx="585.6666666666666" cy="309.5"></circle><circle r="10" class="node" id="0_1" style="fill: rgb(255, 255, 255); stroke: rgb(51, 51, 51);" cx="585.6666666666666" cy="349.5"></circle><circle r="10" class="node" id="0_2" style="fill: rgb(255, 255, 255); stroke: rgb(51, 51, 51);" cx="585.6666666666666" cy="389.5"></circle><circle r="10" class="node" id="0_3" style="fill: rgb(255, 255, 255); stroke: rgb(51, 51, 51);" cx="585.6666666666666" cy="429.5"></circle><circle r="10" class="node" id="1_0" style="fill: rgb(255, 255, 255); stroke: rgb(51, 51, 51);" cx="765.6666666666666" cy="349.5"></circle><circle r="10" class="node" id="1_1" style="fill: rgb(255, 255, 255); stroke: rgb(51, 51, 51);" cx="765.6666666666666" cy="389.5"></circle><text class="text" dy=".35em" style="font-size: 12px;" x="550.6666666666666" y="469.5">Input Layer ∈ ℝ⁴</text><text class="text" dy=".35em" style="font-size: 12px;" x="730.6666666666666" y="469.5">Hidden Layer ∈ ℝ²</text><circle r="10" class="node" id="2_0" style="fill: rgb(255, 255, 255); stroke: rgb(51, 51, 51);" cx="945.6666666666666" cy="329.5"></circle><circle r="10" class="node" id="2_1" style="fill: rgb(255, 255, 255); stroke: rgb(51, 51, 51);" cx="945.6666666666666" cy="369.5"></circle><circle r="10" class="node" id="2_2" style="fill: rgb(255, 255, 255); stroke: rgb(51, 51, 51);" cx="945.6666666666666" cy="409.5"></circle><text class="text" dy=".35em" style="font-size: 12px;" x="910.6666666666666" y="469.5">Hidden Layer ∈ ℝ³</text><circle r="10" class="node" id="3_0" style="fill: rgb(255, 255, 255); stroke: rgb(51, 51, 51);" cx="1125.6666666666667" cy="369.5"></circle><text class="text" dy=".35em" style="font-size: 12px;" x="1090.6666666666667" y="469.5">Output Layer ∈ ℝ¹</text></g><defs><marker id="arrow" viewBox="0 -5 10 10" markerWidth="7" markerHeight="7" orient="auto" refX="40"><path d="M0,-5L10,0L0,5" style="stroke: rgb(80, 80, 80); fill: none;"></path></marker></defs></svg>